Coordinates
version=1
nRows=65
nColumns=12
inDegrees=yes

Units are S.I. units (second, meters, Newtons, ...)
Angles are in degrees

endheader
time	SC_y	SC_z	SC_x	AC_y	AC_z	AC_x	GH_y	GH_z	GH_yy	EL_x	PS_y
       0.0               -13.3          25.36          28.04          52.23         -7.462          13.39          94.78          53.28         -3.017          46.79          115.9
   0.02133               -13.3          25.36          28.04          52.23         -7.462          13.39          94.75          53.27         -3.038          46.78          115.9
   0.04266               -13.3          25.35          28.05          52.23         -7.462          13.39          94.72          53.26          -3.06          46.78          115.8
   0.06399               -13.3          25.35          28.05          52.23         -7.462          13.39          94.69          53.25         -3.083          46.77          115.8
   0.08532               -13.3          25.35          28.05          52.23         -7.461          13.39          94.66          53.24         -3.107          46.76          115.8
    0.1067               -13.3          25.34          28.06          52.23         -7.461          13.39          94.63          53.22         -3.134          46.76          115.8
     0.128               -13.3          25.34          28.06          52.23         -7.461          13.38          94.59          53.21         -3.162          46.75          115.8
    0.1493               -13.3          25.33          28.07          52.23          -7.46          13.38          94.55           53.2         -3.192          46.74          115.8
    0.1706               -13.3          25.33          28.07          52.23          -7.46          13.38          94.51          53.18         -3.224          46.73          115.7
     0.192               -13.3          25.32          28.08          52.23          -7.46          13.38          94.46          53.17         -3.258          46.72          115.7
    0.2133               -13.3          25.31          28.08          52.23         -7.459          13.38          94.42          53.15         -3.295          46.71          115.7
    0.2346               -13.3          25.31          28.09          52.23         -7.459          13.37          94.36          53.13         -3.335           46.7          115.6
     0.256               -13.3           25.3           28.1          52.23         -7.458          13.37          94.31          53.11         -3.378          46.69          115.6
    0.2773               -13.3          25.29           28.1          52.23         -7.458          13.37          94.25          53.09         -3.424          46.68          115.6
    0.2986               -13.3          25.28          28.11          52.23         -7.457          13.37          94.18          53.07         -3.474          46.66          115.5
      0.32               -13.3          25.28          28.12          52.23         -7.457          13.36          94.11          53.04         -3.529          46.65          115.5
    0.3413               -13.3          25.27          28.13          52.23         -7.456          13.36          94.03          53.01         -3.588          46.63          115.5
    0.3626               -13.3          25.26          28.14          52.23         -7.455          13.35          93.95          52.98         -3.652          46.61          115.4
     0.384               -13.3          25.24          28.15          52.22         -7.454          13.35          93.86          52.95         -3.722          46.59          115.4
    0.4053               -13.3          25.23          28.16          52.22         -7.453          13.35          93.75          52.92         -3.799          46.57          115.3
    0.4266               -13.3          25.22          28.17          52.22         -7.453          13.34          93.64          52.88         -3.884          46.55          115.2
    0.4479               -13.3           25.2          28.19          52.22         -7.451          13.34          93.52          52.83         -3.977          46.52          115.2
    0.4693              -13.31          25.18           28.2          52.22          -7.45          13.33          93.39          52.79         -4.079          46.49          115.1
    0.4906              -13.31          25.17          28.22          52.22         -7.449          13.32          93.24          52.73         -4.193          46.46          115.0
    0.5119              -13.31          25.14          28.24          52.22         -7.448          13.31          93.07          52.67          -4.32          46.43          114.9
    0.5333              -13.31          25.12          28.26          52.22         -7.446          13.31          92.89          52.61         -4.461          46.39          114.8
    0.5546              -13.31           25.1          28.28          52.22         -7.444           13.3          92.68          52.53         -4.619          46.34          114.7
    0.5759              -13.31          25.07          28.31          52.22         -7.442          13.29          92.44          52.45         -4.797          46.29          114.5
    0.5973              -13.31          25.03          28.34          52.22          -7.44          13.27          92.18          52.36         -4.998          46.24          114.4
    0.6186              -13.32           25.0          28.37          52.22         -7.437          13.26          91.88          52.25         -5.226          46.17          114.2
    0.6399              -13.32          24.95          28.41          52.21         -7.434          13.24          91.54          52.13         -5.487           46.1          114.0
    0.6613              -13.32           24.9          28.46          52.21         -7.431          13.23          91.15          51.99         -5.786          46.01          113.8
    0.6826              -13.32          24.85          28.51          52.21         -7.427          13.21          90.69          51.83         -6.131          45.92          113.5
    0.7039              -13.33          24.78          28.57          52.21         -7.422          13.18          90.17          51.65         -6.532          45.81          113.2
    0.7252              -13.33           24.7          28.64           52.2         -7.417          13.15          89.55          51.43         -7.002          45.67          112.9
    0.7466              -13.34          24.61          28.73           52.2         -7.411          13.12          88.82          51.17         -7.555          45.52          112.5
    0.7679              -13.34           24.5          28.83           52.2         -7.403          13.08          87.96          50.87         -8.212          45.34          112.0
    0.7892              -13.35          24.37          28.94          52.19         -7.394          13.03          86.93           50.5           -9.0          45.12          111.4
    0.8106              -13.36          24.21          29.09          52.19         -7.384          12.98          85.68          50.06         -9.954          44.85          110.7
    0.8319              -13.37          24.02          29.26          52.18          -7.37          12.91          84.15          49.52         -11.12          44.52          109.8
    0.8532              -13.38          23.78          29.48          52.17         -7.354          12.82          82.26          48.85         -12.56          44.12          108.7
    0.8746               -13.4          23.49          29.75          52.16         -7.334          12.71          79.91          48.02         -14.35          43.62          107.4
    0.8959              -13.42          23.11          30.09          52.14         -7.308          12.58          76.94          46.97         -16.61          42.99          105.7
    0.9172              -13.44          22.64          30.53          52.13         -7.276          12.41          73.18          45.64         -19.48          42.18          103.5
    0.9386              -13.48          22.03          31.08           52.1         -7.234          12.19          68.35          43.94         -23.15          41.15          100.8
    0.9599              -13.52          21.25          31.79          52.07          -7.18           11.9          62.16          41.75         -27.87          39.83          97.26
    0.9812              -13.57          20.26           32.7          52.04         -7.112          11.54          54.26          38.95         -33.89          38.15          92.75
     1.003              -13.64          19.01          33.84          51.99         -7.026          11.09          44.32          35.44         -41.46          36.03          87.07
     1.024              -13.72          17.48          35.24          51.93         -6.921          10.53           32.2          31.16         -50.69          33.45          80.15
     1.045              -13.82          15.71          36.85          51.87           -6.8          9.894          18.16           26.2         -61.39          30.45          72.14
     1.067              -13.92           13.8           38.6          51.79         -6.669          9.199           2.96          20.82         -72.97          27.21          63.46
     1.088              -14.02          11.89          40.35          51.72         -6.537          8.505         -12.24          15.45         -84.56          23.97          54.78
     1.109              -14.12          10.12          41.96          51.66         -6.416          7.864         -26.28          10.49         -95.25          20.97          46.76
     1.131               -14.2          8.594          43.35           51.6         -6.311           7.31          -38.4          6.204         -104.5          18.39          39.84
     1.152              -14.27          7.343           44.5          51.55         -6.225          6.856         -48.34          2.691         -112.1          16.27          34.17
     1.173              -14.32          6.347          45.41          51.51         -6.157          6.495         -56.24        -0.1036         -118.1          14.58          29.66
     1.195              -14.37          5.568          46.12          51.49         -6.103          6.213         -62.43         -2.291         -122.8          13.26          26.12
     1.216               -14.4          4.961          46.67          51.46         -6.061          5.992         -67.26         -3.996         -126.5          12.24          23.37
     1.237              -14.42          4.487          47.11          51.45         -6.029           5.82         -71.02         -5.328         -129.3          11.43          21.22
     1.259              -14.44          4.114          47.45          51.43         -6.003          5.685         -73.99         -6.375         -131.6           10.8          19.52
      1.28              -14.46          3.817          47.72          51.42         -5.983          5.577         -76.34         -7.207         -133.4           10.3          18.18
     1.301              -14.47           3.58          47.93          51.41         -5.967          5.491         -78.23         -7.874         -134.8          9.896           17.1
     1.323              -14.48          3.387          48.11           51.4         -5.953          5.421         -79.76         -8.414         -136.0           9.57          16.23
     1.344              -14.49           3.23          48.25           51.4         -5.943          5.364         -81.01         -8.857         -136.9          9.304          15.52
     1.365               -14.5            3.1          48.37          51.39         -5.934          5.317         -82.04         -9.222         -137.7          9.083          14.93
